HIERARCHY
ROOT pelvis
{
  OFFSET 0 100 0
  CHANNELS 6 Xposition Yposition Zposition Zrotation Xrotation Yrotation
  JOINT pelvis_right_femur
  {
    OFFSET -10.78128 -3.44521 -0.5502486
    CHANNELS 3 Zrotation Xrotation Yrotation
    JOINT right_femur_tibia
    {
      OFFSET -0.8047443 -44.0398 -0.1307829
      CHANNELS 3 Zrotation Xrotation Yrotation
      JOINT right_tibia_foot
      {
        OFFSET 3.006224 -47.83518 -5
        CHANNELS 3 Zrotation Xrotation Yrotation
        End Site
        {
          OFFSET 0 -5 15
        }
      }
    }
  }
  JOINT pelvis_left_femur
  {
    OFFSET 10.78128 -3.44521 -0.5502486
    CHANNELS 3 Zrotation Xrotation Yrotation
    JOINT left_femur_tibia
    {
      OFFSET 0.8047443 -44.0398 -0.1307829
      CHANNELS 3 Zrotation Xrotation Yrotation
      JOINT left_tibia_foot
      {
        OFFSET -4.370144 -48.10324 -4.275266
        CHANNELS 3 Zrotation Xrotation Yrotation
        End Site
        {
          OFFSET 0 -5 15
        }
      }
    }
  }
  JOINT pelvis_spine1
  {
    OFFSET 0 6.468898 -3.129235
    CHANNELS 3 Zrotation Xrotation Yrotation
    JOINT spine1
    {
      OFFSET 0 23.15396 4.99043
      CHANNELS 3 Zrotation Xrotation Yrotation
      JOINT spine2
      {
        OFFSET 0 20.79997 -5.064912
        CHANNELS 3 Zrotation Xrotation Yrotation
        JOINT neck
        {
          OFFSET 0 14.38658 9.616178
          CHANNELS 3 Zrotation Xrotation Yrotation
          End Site
          {
            OFFSET 0 20 0
          }
        }
      }
      JOINT right_manubrium
      {
        OFFSET -5.722621 16.35077 3.967754
        CHANNELS 3 Zrotation Xrotation Yrotation
        JOINT right_clavicle
        {
          OFFSET -13.16364 1.694482 -4.693211
          CHANNELS 3 Zrotation Xrotation Yrotation
          JOINT right_humerus
          {
            OFFSET -28.5034 -0.3100689 -2.792744
            CHANNELS 3 Zrotation Xrotation Yrotation
            JOINT right_radius
            {
              OFFSET -25.15693 0.02248979 -1.271978
              CHANNELS 3 Zrotation Xrotation Yrotation
              End Site
              {
                OFFSET -15 0 0
              }
            }
          }
        }
      }
      JOINT left_manubrium
      {
        OFFSET 5.722621 16.35077 3.967754
        CHANNELS 3 Zrotation Xrotation Yrotation
        JOINT left_clavicle
        {
          OFFSET 13.16364 1.694482 -4.693211
          CHANNELS 3 Zrotation Xrotation Yrotation
          JOINT left_humerus
          {
            OFFSET 29.39168 -1.063119 -2.237045
            CHANNELS 3 Zrotation Xrotation Yrotation
            JOINT left_radius
            {
              OFFSET 24.59957 -0.9528479 0.9047498
              CHANNELS 3 Zrotation Xrotation Yrotation
              End Site
              {
                OFFSET 15 -0 -0
              }
            }
          }
        }
      }
    }
  }
}
MOTION
Frames: 17
Frame Time: 0.0416666666667
0 103.5113 0 0.5138879 -3.768207 -0.05238394 3.290688 -10.97664 8.173358 -0 39.89065 -0 -8.536815 -17.51773 -5.254839 -5.349578 9.857184 -22.03619 -0 6.18159 -0 7.583606 -13.47396 25.10748 -2.142412 -2.137466 4.748612 2.624848 9.462211 -7.497078 1.311991 20.24308 7.291313 4.170386 -25.63185 9.124812 6.104272 -18.62498 11.26288 84.57489 35.13147 -17.79099 -0 0 15.52925 -9.687705 9.515344 5.249937 7.3028 -20.64888 -0.625448 -92.80704 20.92984 20.51825 0 0 -14.15818 12.0359 14.29346 -0.7279498
0.2566179 103.2469 1.566878 0.2790488 -2.941798 -0.07942948 4.018941 -13.72903 8.554903 -0 39.33036 -0 -7.764376 -17.59456 -5.381563 -5.321836 10.31211 -21.89623 -0 6.485937 -0 7.185531 -14.66198 24.51378 -2.144696 -2.178593 4.498956 2.755237 9.439624 -7.710742 1.326352 20.21311 7.413616 4.16291 -25.85872 9.349034 6.108956 -18.26035 11.21916 85.2206 35.1795 -18.73307 -0 0 14.68471 -9.525378 9.726018 5.039123 7.465226 -20.92241 -0.6003256 -92.34165 20.88399 19.6011 0 0 -14.94045 12.56596 14.35165 -1.313806
0.4818454 102.8346 3.298789 0.408168 -2.217608 -0.08325125 4.161356 -17.24662 7.578642 -0 36.1433 -0 -7.42986 -14.37443 -4.210211 -5.873219 11.60365 -21.78101 -0 7.074908 -0 6.655402 -17.23957 24.60268 -2.122099 -2.189162 4.587656 2.751246 9.425522 -7.678539 1.325886 20.22533 7.327957 4.102643 -25.86423 9.26924 6.064464 -18.44462 11.24047 85.05689 35.01033 -18.51962 -0 0 15.02453 -9.411331 9.596283 5.102563 7.327041 -20.80005 -0.6213845 -92.6087 21.2761 20.09972 0 0 -14.83428 12.00961 14.39781 -0.5981927
0.6896923 102.3281 5.193711 0.2993107 -1.387308 -0.0538249 4.573721 -20.17031 7.129824 -0 33.68592 -0 -7.041406 -12.66736 -3.650534 -6.031196 12.22772 -21.4021 -0 7.422655 -0 6.002907 -18.92351 24.01691 -2.115069 -2.201892 4.547062 2.786736 9.416003 -7.728283 1.328573 20.22129 7.332098 4.079904 -25.92672 9.300254 6.050074 -18.40334 11.23677 85.18226 34.9639 -18.70977 -0 0 14.89581 -9.335424 9.612312 5.074224 7.32286 -20.83645 -0.6234332 -92.56248 21.39709 20.00589 0 0 -15.02492 11.95949 14.42364 -0.5065226
0.8850069 101.7408 7.28594 0.07869398 -0.336998 0.04799818 5.127887 -23.20436 6.933388 -0 31.31428 -0 -6.504533 -11.41409 -3.284246 -6.05989 12.68934 -20.94133 -0 7.646534 -0 5.047085 -20.46407 23.01705 -2.10543 -2.206741 4.512953 2.8243 9.410812 -7.779101 1.326508 20.21908 7.322624 4.048643 -25.98088 9.304484 6.028168 -18.37523 11.24056 85.29208 34.89043 -18.87678 -0 0 14.77309 -9.276156 9.616955 5.088689 7.291858 -20.86457 -0.6350305 -92.52055 21.57056 19.94298 0 0 -15.24016 11.80584 14.43029 -0.2792303
1.072288 101.1038 9.627779 -0.2362696 0.5544334 0.2263006 5.772285 -25.61215 6.718889 -0 29.1426 -0 -6.237746 -10.29424 -3.048267 -5.910978 12.87272 -20.21901 -0 8.343095 -0 4.157716 -21.32155 21.71294 -2.101179 -2.202695 4.470408 2.8564 9.413789 -7.827494 1.321592 20.21511 7.325274 4.031834 -26.01642 9.307287 6.016035 -18.3202 11.24416 85.40498 34.85229 -19.04052 -0 0 14.60245 -9.268639 9.643736 5.116442 7.280559 -20.9095 -0.6458316 -92.42728 21.6505 19.79912 0 0 -15.45029 11.74269 14.41083 -0.1728449
1.254643 100.4609 12.27202 -0.6199396 1.260676 0.4732798 6.466148 -27.44466 6.422253 -0 27.12355 -0 -6.272945 -9.135372 -2.871835 -5.627167 12.85751 -19.26818 -0 9.648026 -0 3.364044 -21.56265 20.19127 -2.098304 -2.188057 4.433793 2.883204 9.424443 -7.869544 1.311939 20.21196 7.323393 4.018138 -26.03058 9.287672 6.004777 -18.26773 11.25318 85.49342 34.81678 -19.16421 -0 0 14.43172 -9.303807 9.67057 5.18196 7.26014 -20.95158 -0.6625216 -92.32062 21.71056 19.65315 0 0 -15.65163 11.65477 14.36382 -0.03817532
1.434139 99.8556 15.26252 -1.033044 1.665947 0.7629232 7.138532 -28.55313 5.937469 -0 25.24289 -0 -6.707857 -7.810466 -2.69439 -5.235112 12.65985 -18.09451 -0 11.72254 -0 2.796442 -21.14618 18.59396 -2.09863 -2.160346 4.410448 2.897323 9.44478 -7.895199 1.297254 20.21019 7.317512 4.013087 -26.01066 9.241229 5.99798 -18.22384 11.26782 85.53375 34.79604 -19.2116 -0 0 14.28376 -9.398206 9.695807 5.289019 7.233977 -20.98471 -0.6839569 -92.20704 21.71917 19.51777 0 0 -15.80505 11.56266 14.28372 0.09264213
1.612299 99.33355 18.62804 -1.442303 1.758977 1.062382 7.747482 -28.9518 5.257041 -0 23.48785 -0 -7.511603 -6.326201 -2.483295 -4.767128 12.2979 -16.75206 -0 14.56515 -0 2.468598 -20.15608 17.01582 -2.101162 -2.118454 4.404508 2.898407 9.475005 -7.903016 1.276876 20.21068 7.302935 4.01371 -25.95443 9.161323 5.993017 -18.19626 11.28977 85.51764 34.78086 -19.17107 -0 0 14.17109 -9.552184 9.713561 5.446149 7.193864 -21.00336 -0.7123943 -92.09557 21.6954 19.41329 0 0 -15.90992 11.43396 14.16825 0.2613808
1.789643 98.93772 22.3771 -1.815303 1.543377 1.335861 8.266109 -28.65415 4.406082 -0 21.86143 -0 -8.621483 -4.748137 -2.221888 -4.251825 11.76585 -15.30088 -0 18.11742 -0 2.370287 -18.68821 15.53967 -2.106224 -2.061244 4.420482 2.883318 9.515714 -7.888314 1.250729 20.21411 7.27818 4.020922 -25.85637 9.044606 5.989963 -18.19032 11.31949 85.43298 34.7714 -19.02423 -0 0 14.10807 -9.771743 9.720788 5.65709 7.138273 -21.00268 -0.74803 -91.99264 21.63455 19.35266 0 0 -15.95032 11.26541 14.01481 0.4701377
1.965045 98.70718 26.49605 -2.126777 1.051706 1.550222 8.687668 -27.69965 3.445823 -0 20.37639 -0 -9.939605 -3.187301 -1.911998 -3.71353 11.03865 -13.8063 -0 22.26377 -0 2.452214 -16.85645 14.2232 -2.113417 -1.988462 4.46104 2.851186 9.56675 -7.849412 1.21894 20.22109 7.241171 4.033432 -25.71502 8.889056 5.987214 -18.21031 11.35742 85.27474 34.76193 -18.76342 -0 0 14.10347 -10.05735 9.714471 5.924653 7.06386 -20.97898 -0.7915758 -91.90374 21.54433 19.34696 0 0 -15.92286 11.04425 13.82247 0.7351711
2.135035 98.67265 30.948 -2.35804 0.325165 1.6771 9.015496 -26.12775 2.44855 -0 19.04615 -0 -11.35771 -1.771268 -1.569359 -3.17094 10.07029 -12.32837 -0 26.84902 -0 2.654859 -14.77438 13.11473 -2.122589 -1.900225 4.529332 2.800356 9.627764 -7.783536 1.18203 20.23225 7.190545 4.050686 -25.52869 8.694161 5.983537 -18.26075 11.40358 85.03672 34.74769 -18.37882 -0 0 14.16844 -10.40971 9.691852 6.249538 6.968873 -20.92807 -0.8429661 -91.83525 21.42769 19.40755 0 0 -15.81927 10.76471 13.59091 1.063323
2.29361 98.85112 35.67328 -2.498231 -0.5879898 1.694419 9.257058 -23.98282 1.485704 -0 17.87253 -0 -12.76416 -0.6300943 -1.219792 -2.636291 8.796963 -10.91788 -0 31.66986 -0 2.917706 -12.55692 12.25704 -2.133354 -1.797285 4.628202 2.72974 9.697951 -7.688577 1.14081 20.24819 7.12492 4.07141 -25.29744 8.460695 5.977056 -18.34622 11.45781 84.715 34.72132 -17.86387 -0 0 14.31371 -10.82703 9.650141 6.631082 6.851309 -20.8457 -0.9019559 -91.79424 21.29138 19.54628 0 0 -15.63406 10.41937 13.32084 1.464243
2.432964 99.23862 40.59209 -2.545176 -1.634223 1.587139 9.419603 -21.31967 0.6160776 -0 16.83314 -0 -14.05239 0.1162795 -0.8927855 -2.11384 7.143157 -9.611292 -0 36.46001 -0 3.190643 -10.322 11.68844 -2.145308 -1.680949 4.760795 2.638108 9.776155 -7.562098 1.096424 20.26951 7.04321 4.09429 -25.02229 8.190781 5.965763 -18.47189 11.51972 84.30605 34.67443 -17.21218 -0 0 14.55169 -11.30622 9.586491 7.066964 6.709692 -20.72711 -0.9677465 -91.78917 21.14195 19.77637 0 0 -15.36032 10.00297 13.01383 1.944967
2.545477 99.80284 45.61113 -2.50692 -2.752753 1.347923 9.509237 -18.21389 -0.1221571 -0 15.87223 -0 -15.12944 0.3693689 -0.6141077 -1.59768 5.03497 -8.425875 -0 40.87532 -0 3.441389 -8.190778 11.43562 -2.157928 -1.553225 4.930026 2.52463 9.860776 -7.402095 1.050303 20.29667 6.944679 4.117644 -24.70606 7.888141 5.947381 -18.64293 11.58866 83.80853 34.59712 -16.42037 -0 0 14.89459 -11.84197 9.498273 7.553039 6.542895 -20.56758 -1.039057 -91.82937 20.98759 20.11128 0 0 -14.99263 9.511203 12.67249 2.511893
2.626868 100.478 50.63515 -2.402569 -3.874321 0.9776213 9.531837 -14.76848 -0.7159812 -0 14.90241 -0 -15.92591 0.06375442 -0.3996192 -1.069913 2.422753 -7.35653 -0 44.4938 -0 3.66061 -6.280546 11.50177 -2.170638 -1.416853 5.138157 2.389011 9.949787 -7.207264 1.00412 20.32993 6.829308 4.139643 -24.35371 7.558393 5.919683 -18.86388 11.66372 83.22431 34.47906 -15.48944 -0 0 15.35302 -12.42662 9.383527 8.082897 6.350696 -20.36306 -1.113986 -91.92423 20.83676 20.56305 0 0 -14.52766 8.94282 12.30064 3.168143
2.679686 101.1655 55.58351 -2.260653 -4.922714 0.4855359 9.493338 -11.11161 -1.175197 -0 13.82679 -0 -16.40255 -0.8229862 -0.2543863 -0.5020375 -0.6866645 -6.378973 -0 46.84653 -0 3.86005 -4.689276 11.85526 -2.182834 -1.275307 5.385799 2.23205 10.04075 -6.977929 0.9596706 20.36919 6.698196 4.158375 -23.97287 7.209314 5.880763 -19.13719 11.74362 82.5607 34.31071 -14.42828 -0 0 15.93251 -13.04977 9.241732 8.647494 6.134252 -20.11142 -1.190069 -92.08141 20.69779 21.13877 0 0 -13.96721 8.300923 11.90351 3.912086
